<mxfile host="app.diagrams.net" modified="2023-05-28T13:48:41.847Z" agent="Mozilla/5.0 (Macintosh; Intel Mac OS X 10_15_7) AppleWebKit/537.36 (KHTML, like Gecko) Chrome/112.0.0.0 Safari/537.36" version="21.3.2" etag="tmwjcEBLINk-TZHrjRQf" type="github">
  <diagram name="第 1 页" id="HpkNO3LlVOQ7alLis1Zk">
    <mxGraphModel>
      <root>
        <mxCell id="0" />
        <mxCell id="1" parent="0" />
      </root>
    </mxGraphModel>
  </diagram>
</mxfile>
